<svg version="1.1" id="prefix___x32_" xmlns="http://www.w3.org/2000/svg" viewBox="0 0 512 512" xml:space="preserve"><style>.prefix__st0{fill:#fff}</style><path class="prefix__st0" d="M378.4 0H195.1l-9.3 9.3L57 138.1l-9.3 9.3v278.7a86 86 0 0 0 85.9 85.9h244.8a86 86 0 0 0 85.9-85.9V86a86 86 0 0 0-85.9-86m54.1 426.1a54 54 0 0 1-54 54.1h-245a54 54 0 0 1-54.1-54V160.5h83.7a45 45 0 0 0 45.1-45V31.7h170.1a54 54 0 0 1 54.1 54.1z"/><path class="prefix__st0" d="M169.6 269c5.8 0 9 2.1 12.5 6.7 2.7 3.8 5.4 5.2 8.8 5.2 5 0 9.1-3.7 9.1-9q0-3-1.8-6c-4.6-8.2-14.8-14.6-28.6-14.6-16.2 0-28.2 7.6-33 22.7a74 74 0 0 0-2.6 25 74 74 0 0 0 2.6 25c4.8 15 16.8 22.6 33 22.6 13.8 0 24-6.3 28.6-14.6q1.7-2.9 1.8-6c0-5.3-4-9-9.1-9-3.4 0-6.1 1.4-8.8 5.2-3.4 4.6-6.7 6.8-12.5 6.8-7.5 0-11.8-4-13.9-10.2-1-3.4-1.5-6.7-1.5-19.8s.4-16.5 1.5-19.9c2-6.2 6.4-10.2 13.9-10.2m85.5 20.7-4.8-.7c-10.8-1.5-14.4-5-14.4-10.2 0-5.8 4.3-9.9 12.5-9.9 5.7 0 11.4 1.6 15.9 3.8q2.9 1.5 5.8 1.5c4.9 0 8.7-3.7 8.7-8.7q0-4.9-4.8-8a54 54 0 0 0-25.8-6.1c-20 0-32.7 11.3-32.7 28.2 0 16.3 10.3 25.2 29.2 27.8l4.9.6c11 1.5 14.2 5 14.2 10.3 0 6.4-5.3 11-15 11-6.8 0-12.3-1.8-19.9-6q-2.4-1.6-5.8-1.7c-5.2 0-9 4-9 8.8a10 10 0 0 0 4.8 8.5 55 55 0 0 0 29 7.8c24 0 36.3-12.3 36.3-29s-9.9-25.3-29-28m83.5 0-4.9-.7c-10.7-1.5-14.4-5-14.4-10.2 0-5.8 4.4-9.9 12.5-9.9 5.7 0 11.4 1.6 15.9 3.8q3 1.5 5.8 1.5c5 0 8.7-3.7 8.7-8.7q0-4.9-4.7-8a54 54 0 0 0-25.8-6.1c-20 0-32.8 11.3-32.8 28.2 0 16.3 10.4 25.2 29.2 27.8l5 .6c11 1.5 14.2 5 14.2 10.3 0 6.4-5.3 11-15 11-6.9 0-12.3-1.8-20-6q-2.4-1.6-5.8-1.7c-5.1 0-9 4-9 8.8a10 10 0 0 0 4.8 8.5 55 55 0 0 0 29 7.8c24.1 0 36.4-12.3 36.4-29s-10-25.3-29.1-28"/></svg>
