<svg viewBox="0 0 16 16" xmlns="http://www.w3.org/2000/svg" fill="none"><path fill="#fff" d="m12.3 4.5.2-.2.3.2q.8.4 1 1.7h.7q1 0 1.1.2h.1l.1.1.2.2v.2l-.5.7q-.4.5-1.6.7h-.4q-.4 1.5-1.7 3l-1.7 1.5a8 8 0 0 1-2.6 1l-2 .2q-2.1 0-3.4-.8A4 4 0 0 1 .5 11 8 8 0 0 1 0 8.2l.4-.5h10.9l.9-.3q-.4-.9-.3-1.9l.3-.8zM3 5.8v1.4a.1.1 0 0 1 0 .2H1.4l-.1-.1V5.7zm2 0v1.4a.1.1 0 0 1 0 .2H3.3v-.1h-.1V5.7h1.5m2 0v1.4a.1.1 0 0 1 0 .2H5.3l-.1-.1V5.7zm1.9 0v1.4a.1.1 0 0 1 0 .2H7.4a.1.1 0 0 1-.2-.1V5.8l.1-.1zm2 0v1.4a.1.1 0 0 1 0 .2H9.2l-.1-.1V5.7zm-6-2a.1.1 0 0 1 .2 0v1.4a.1.1 0 0 1-.1.2H3.3v-.1h-.1V3.8zm2 0H7v1.4a.1.1 0 0 1 0 .2H5.3l-.1-.1V3.8zm2 0v1.5a.1.1 0 0 1 0 .2H7.4a.1.1 0 0 1-.2-.1V4l.1-.1zm0-1.8v1.4a.1.1 0 0 1 0 .2H7.4a.1.1 0 0 1-.2-.1V2h.1z"/></svg>
