<svg version="1.1" id="prefix___x32_" xmlns="http://www.w3.org/2000/svg" viewBox="0 0 512 512" xml:space="preserve"><style>.prefix__st0{fill:#fff}</style><path  class="prefix__st0" d="M378.4 0H195.1l-9.3 9.3L57 138.1l-9.3 9.3v278.7a86 86 0 0 0 85.9 85.9h244.8a86 86 0 0 0 85.9-85.9V86a86 86 0 0 0-85.9-86m54.1 426.1a54 54 0 0 1-54 54.1h-245a54 54 0 0 1-54.1-54V160.5h83.7a45 45 0 0 0 45.1-45V31.7h170.1a54 54 0 0 1 54.1 54.1z"/><path class="prefix__st0" d="M163.2 253.2c-5.1 0-8.9 3.6-8.9 9.5V286q0 .8-.7.8h-27q-.7 0-.7-.8v-23.4c0-5.9-3.8-9.5-9-9.5-5.1 0-9 3.6-9 9.5v65.1c0 5.8 3.7 9.5 9 9.5 5 0 9-3.7 9-9.5v-24.3q0-.7.7-.7h27q.7 0 .7.7v24.3c0 5.8 3.8 9.5 8.9 9.5s9-3.7 9-9.5v-65.1c0-5.9-3.8-9.5-9-9.5m72 .9H188c-5.5 0-9 3.2-9 8 0 4.6 3.5 7.8 9 7.8h14q.6 0 .7.8v57.2c0 5.7 3.7 9.5 8.9 9.5s9-3.8 9-9.5v-57.2q0-.8.7-.8h14c5.4 0 9-3.2 9-7.9s-3.6-8-9-8m83-.7c-5.4 0-8.3 3-11 9.2l-17.2 39.9h-.5l-17.7-39.9c-2.7-6.3-5.7-9.2-11-9.2-6 0-9.9 4.1-9.9 10.7v64.8c0 5.4 3.5 8.6 8.3 8.6 4.6 0 8-3.2 8-8.6v-39.9h.6l13 29.7c2.5 5.8 4.5 7.5 8.7 7.5s6.2-1.7 8.7-7.5l12.8-29.7h.6v39.9c0 5.4 3.3 8.6 8.1 8.6 5 0 8.2-3.2 8.2-8.6v-64.8c0-6.6-3.8-10.7-9.7-10.7m71.1 67.4H360q-.8 0-.8-.7v-57.2c0-5.7-3.7-9.5-8.8-9.5-5.3 0-9 3.8-9 9.5v64.9c0 5.3 3.5 9 9 9h39c5.4 0 9-3.3 9-8s-3.6-8-9-8"/></svg>
