<svg viewBox="0 0 24 24" fill="none" xmlns="http://www.w3.org/2000/svg"><path fill-rule="evenodd" clip-rule="evenodd" d="M9.3 1.3q.3-.3.7-.3h8a3 3 0 0 1 3 3v5a1 1 0 1 1-2 0V4q0-1-1-1h-7v5q0 1-1 1H5v11q0 1 1 1h1a1 1 0 1 1 0 2H6a3 3 0 0 1-3-3V8q0-.4.3-.7zM6.4 7H9V4.4zm9.6 7.8c0-1.6 1.2-2.8 2.8-2.8H21a1 1 0 1 1 0 2h-2.2a.8.8 0 0 0 0 1.5h.4a2.7 2.7 0 1 1 0 5.5H17a1 1 0 1 1 0-2h2.3a.8.8 0 0 0 0-1.5h-.6a2.7 2.7 0 0 1-2.7-2.7M15 13a1 1 0 1 0-2 0v5a1 1 0 1 1-2 0v-.3a1 1 0 1 0-2 0v.3a3 3 0 1 0 6 0z" fill="#fff"/></svg>
