<svg viewBox="0 0 32 32" xmlns="http://www.w3.org/2000/svg"><path fill="#fff" d="M17.6 3c1.4 3.3-5 5.3-5.6 8-.5 2.6 3.8 5.6 3.8 5.6Q15 15.3 14 13c-1.1-2.7 6.9-5.2 3.6-10M22 7.6s-5.6.3-6 4c0 1.7 1.6 2.5 1.6 3.7 0 1-1 1.8-1 1.8s1.8-.3 2.4-1.8c.6-1.7-1.2-2.8-1-4.1s4-3.6 4-3.6m1.4 8.5a3 3 0 0 0-1.9.6c1.2-.3 2.2.5 2.2 1.3 0 1.9-2.7 3.7-2.7 3.7s4-.5 4-3.7q-.2-2-1.7-2m-11 0c-1.5 0-4.4.3-4.4 1.4 0 1.6 6.7 1.7 11.5.7l1.7-1.2a33 33 0 0 1-10.4.2c0-.6 2.3-1.1 2.3-1.1zm-.5 2.9c-.8 0-2 .6-2 1.2 0 1.2 6 2.1 10.4.4l-1.5-1c-3 1-8.6.7-7-.6m.7 2.7c-1 0-1.7.7-1.7 1.2 0 1.5 6.4 1.7 9 .1l-1.6-1c-2 .8-6.8.9-5.7-.3M9 23c-1.8 0-2.9.8-2.9 1.4 0 3.6 18 3.4 18-.2 0-.6-.6-1-.9-1 1.5 3.4-14.8 3.2-14.8 1.1 0-.5 1.2-1 2.4-.7l-1-.5zm17 2.5c-2.7 2.7-9.7 3.6-16.7 2 7 2.9 16.7 1.3 16.7-2"/></svg>
