<svg viewBox="0 0 24 24" xmlns="http://www.w3.org/2000/svg"><path fill="none" d="M0 0h24v24H0z"/><path fill="#fff" d="M12 10.1a1.9 1.9 0 1 1-1.9 1.9 2 2 0 0 1 1.9-1.9M7.4 20q1 .6 3.6-1.7l-1.5-1.9L7 16q-.7 3.3.3 4m.7-5.7-.3-.6-.3 1h.9zm6.5-.8.8-1.5-.8-1.5-.9-1.5h-3.4l-1 1.5-.7 1.5.8 1.5.9 1.5h3.4zM12 6.8l-.6.7h1.2zm0 10.4.6-.7h-1.2zM16.6 4q-1-.6-3.6 1.7l1.5 1.9L17 8q.8-3.4-.3-4M16 9.7l.3.5.3-.9-.9-.1zm1.5-7c1.4.8 1.6 3 1 5.6 2.5.8 4.3 2 4.3 3.7s-1.8 3-4.3 3.7c.6 2.6.4 4.8-1 5.6s-3.5-.1-5.4-2c-2 1.9-4 2.9-5.4 2s-1.6-3-1-5.6c-2.5-.8-4.3-2-4.3-3.7S3 9 5.6 8.3c-.6-2.6-.4-4.8 1-5.6s3.5.1 5.4 2q3.2-3 5.4-2M17 12l.9 2.3q3.2-1.1 3.3-2.3c0-1.2-1.2-1.6-3.3-2.3zM7 12 6 9.7Q2.8 10.8 2.7 12c0 1.2 1.2 1.6 3.3 2.3zm9 2.3-.4.5.9-.2-.3-.9zm-2.9 4q2.5 2.2 3.6 1.7c1-.5.8-1.8.3-4l-2.4.4zM8 9.7l.4-.5-.9.2.3.9zm2.9-4Q8.5 3.5 7.4 4c-1.1.5-.9 1.8-.3 4l2.4-.4z"/></svg>
